<?xml version="1.0" standalone="no"?>
<!DOCTYPE svg PUBLIC "-//W3C//DTD SVG 20010904//EN"
 "http://www.w3.org/TR/2001/REC-SVG-20010904/DTD/svg10.dtd">
<svg version="1.0" xmlns="../../../../www.w3.org/2000/svg.html"
 width="600.000000pt" height="600.000000pt" viewBox="0 0 600.000000 600.000000"
 preserveAspectRatio="xMidYMid meet">
<metadata>
Created by potrace 1.14, written by Peter Selinger 2001-2017
</metadata>
<g transform="translate(0.000000,600.000000) scale(0.100000,-0.100000)"
fill="#000000" stroke="none">
<path d="M1681 4093 c-14 -12 -43 -90 -92 -243 -39 -124 -84 -253 -100 -287
-59 -124 -159 -231 -283 -302 -29 -17 -160 -67 -292 -111 -247 -83 -274 -97
-274 -147 0 -48 37 -68 266 -142 240 -78 311 -110 394 -178 135 -109 184 -197
287 -518 50 -159 80 -235 94 -247 29 -25 71 -23 96 5 11 12 50 115 88 237 38
118 78 238 91 267 56 129 180 262 302 326 37 19 172 69 300 112 161 53 235 82
242 95 17 32 11 75 -12 97 -13 11 -121 53 -243 93 -285 94 -337 121 -445 229
-109 109 -143 179 -235 471 -70 225 -89 260 -139 260 -13 0 -33 -8 -45 -17z"/>
<path d="M4217 4088 c-19 -17 -42 -77 -92 -238 -93 -296 -125 -361 -234 -470
-109 -109 -161 -136 -446 -230 -122 -40 -230 -82 -242 -93 -24 -22 -30 -65
-13 -97 7 -13 81 -42 242 -95 296 -98 349 -125 458 -235 109 -108 143 -176
235 -470 39 -124 76 -224 88 -237 25 -28 67 -30 96 -5 14 11 43 89 92 242 39
124 85 253 101 287 35 77 111 173 180 231 77 64 158 101 403 182 231 76 265
94 265 146 0 49 -37 69 -256 139 -115 37 -237 81 -271 97 -135 64 -242 168
-310 302 -20 39 -69 175 -110 301 -76 238 -90 265 -139 265 -12 0 -34 -10 -47
-22z"/>
</g>
</svg>
